<?xml version="1.0" standalone="no"?>
<!DOCTYPE svg PUBLIC "-//W3C//DTD SVG 20010904//EN"
 "http://www.w3.org/TR/2001/REC-SVG-20010904/DTD/svg10.dtd">
<svg version="1.0" xmlns="http://www.w3.org/2000/svg"
 width="3840.000000pt" height="2160.000000pt" viewBox="0 0 3840.000000 2160.000000"
 preserveAspectRatio="xMidYMid meet">
<metadata>
Created by potrace 1.16, written by Peter Selinger 2001-2019
</metadata>
<g transform="translate(0.000000,2160.000000) scale(0.100000,-0.100000)"
fill="#000000" stroke="none">
<path d="M14559 21316 c-3 -3 -235 -6 -515 -7 -552 -2 -745 -9 -984 -34 -773
-81 -1281 -217 -1845 -495 -314 -154 -566 -313 -806 -505 -642 -518 -1112
-1173 -1396 -1950 -163 -445 -287 -1092 -309 -1605 -3 -80 -7 -158 -10 -175
-24 -184 -27 -10204 -3 -10189 5 3 9 -3 10 -13 0 -17 1 -17 8 0 4 10 11 18 16
17 6 0 11 12 12 27 l2 28 -9 -30 c-7 -29 -8 -29 -9 -4 0 14 8 34 19 44 11 10
20 15 20 11 0 -4 12 7 26 24 15 17 29 29 32 26 2 -3 14 6 24 20 11 14 23 23
25 20 3 -3 14 5 24 17 10 12 19 18 19 12 0 -5 9 4 20 20 11 17 20 24 20 16 0
-8 9 -2 21 13 12 15 24 24 27 21 3 -3 12 5 19 17 7 13 12 17 13 9 0 -8 9 -2
21 13 12 15 24 24 27 21 3 -3 12 5 19 17 7 13 12 17 13 9 0 -8 9 -3 21 13 11
14 24 24 29 21 4 -3 11 2 14 11 4 9 10 14 13 10 4 -4 13 4 20 16 8 15 13 18
13 8 0 -9 6 -5 15 10 9 16 15 19 15 10 1 -9 5 -5 11 8 5 13 13 21 18 18 5 -3
12 1 15 10 3 8 10 12 16 9 5 -3 10 0 10 7 0 11 2 10 9 0 6 -10 10 -8 14 9 4
13 10 20 14 16 4 -4 13 3 20 15 8 15 13 18 13 8 0 -9 6 -5 15 10 9 15 15 19
15 10 0 -9 6 -5 15 10 8 14 14 19 15 10 0 -10 5 -7 16 8 8 12 19 20 24 17 4
-3 11 2 14 11 3 8 10 13 15 10 5 -3 12 1 15 10 3 8 10 13 15 10 5 -3 12 1 15
10 3 8 10 13 15 10 5 -3 12 1 15 10 3 8 10 13 15 10 5 -3 12 1 15 10 3 8 10
13 15 10 5 -3 12 1 15 10 3 8 10 12 16 9 5 -3 10 0 10 7 0 9 3 9 10 -2 8 -13
10 -12 10 4 0 11 3 17 6 13 3 -3 3 -15 -1 -28 -6 -17 -9 -19 -16 -8 -7 12 -9
11 -9 -1 0 -13 -1 -13 -11 0 -8 12 -9 9 -4 -10 5 -19 4 -22 -4 -10 -10 13 -11
13 -11 0 0 -13 -1 -13 -11 0 -8 12 -9 9 -4 -10 5 -19 4 -22 -4 -10 -10 13 -11
13 -11 0 0 -13 -1 -13 -11 0 -8 12 -9 9 -4 -10 5 -19 4 -22 -4 -10 -10 13 -11
13 -11 0 0 -13 -1 -13 -11 0 -8 12 -9 9 -4 -10 5 -19 4 -22 -4 -10 -10 13 -11
13 -11 0 0 -13 -1 -13 -11 0 -8 12 -9 9 -4 -10 5 -19 4 -22 -4 -10 -10 13 -11
13 -11 0 0 -13 -2 -13 -11 0 -9 13 -10 12 -5 -3 3 -10 2 -16 -4 -12 -6 4 -7
-2 -4 -12 4 -14 4 -15 -4 -4 -8 11 -10 11 -15 0 -4 -11 -6 -11 -7 1 0 10 -6 6
-15 -10 -9 -15 -15 -19 -15 -10 0 9 -6 5 -15 -10 -9 -15 -15 -19 -15 -10 0 9
-6 5 -15 -10 -8 -14 -14 -19 -15 -11 0 8 -2 12 -5 9 -3 -3 -1 -16 4 -29 7 -18
10 -20 10 -6 1 10 6 15 11 12 6 -3 13 1 16 9 3 9 10 13 15 10 5 -3 12 2 15 10
3 9 10 13 15 10 5 -3 12 2 15 10 3 9 10 13 15 10 5 -3 12 2 15 10 3 9 10 14
14 11 5 -3 16 5 24 17 11 15 16 18 16 8 1 -9 7 -4 15 10 9 15 15 19 15 10 0
-9 6 -5 15 10 9 15 15 19 15 10 0 -9 6 -5 15 10 9 15 15 19 15 10 0 -9 6 -5
15 10 9 15 14 19 15 10 0 -13 1 -13 10 0 5 8 10 11 10 5 0 -5 6 -3 13 6 7 9
17 16 22 15 6 -1 11 10 12 24 l2 25 -8 -25 -9 -25 -2 25 -2 25 -9 -25 -8 -25
2 25 c1 14 6 23 10 20 5 -3 13 3 18 13 6 9 14 15 20 12 5 -4 9 0 9 7 0 11 2
10 9 0 6 -10 10 -8 14 8 3 12 10 19 16 15 6 -3 11 0 11 7 0 9 3 9 10 -2 8 -12
10 -10 10 9 0 13 3 22 6 18 3 -3 3 -21 -1 -39 -7 -29 -9 -30 -16 -13 l-8 20
-1 -20 c-1 -20 -2 -20 -9 0 -7 17 -9 16 -15 -10 -5 -21 -10 -25 -16 -16 -6 10
-10 8 -15 -8 -4 -13 -4 -25 -1 -28 3 -4 6 2 6 13 0 15 2 16 9 5 7 -11 10 -9
16 9 6 18 9 20 16 9 7 -11 9 -11 9 -1 0 7 5 10 10 7 6 -3 14 4 19 17 6 13 10
16 11 8 0 -12 2 -12 9 -2 4 8 12 12 17 10 5 -1 10 8 11 22 l2 25 -8 -25 -9
-25 -2 25 -2 25 -9 -25 -8 -25 2 25 c1 14 6 23 11 22 5 -2 13 2 17 10 7 10 9
10 10 -2 0 -8 5 -4 10 10 7 20 8 17 4 -15 -3 -29 -2 -35 5 -20 6 14 9 15 9 5
1 -12 3 -12 10 -2 4 8 12 12 17 10 5 -1 10 8 11 22 l2 25 -8 -25 -9 -25 -2 25
-2 25 -9 -25 -8 -25 2 25 c1 14 6 24 10 22 4 -2 17 7 27 20 11 13 19 19 20 14
0 -5 7 -3 15 4 8 7 15 9 15 4 0 -5 5 -2 10 6 9 13 10 13 11 0 0 -8 5 -4 10 10
l8 25 -2 -25 c-2 -14 -8 -24 -15 -22 -8 1 -11 -2 -6 -9 4 -8 3 -9 -5 -5 -6 4
-14 0 -17 -9 -5 -12 -9 -13 -14 -5 -5 9 -10 6 -15 -9 -4 -13 -4 -25 -1 -28 3
-4 6 2 6 13 0 16 2 17 10 4 7 -11 10 -11 10 -2 0 7 4 11 9 7 6 -3 14 3 20 12
6 10 11 14 11 9 0 -5 9 -1 21 10 12 10 24 17 28 14 3 -3 7 6 8 20 l2 25 -8
-25 -9 -25 -2 25 -2 25 -8 -25 c-7 -22 -8 -23 -9 -4 -1 12 6 27 14 34 8 7 15
9 15 5 0 -4 7 -2 15 5 8 7 15 9 15 5 0 -4 9 3 20 16 10 13 19 20 20 15 0 -5 9
-1 20 9 11 10 20 14 20 10 0 -4 9 0 20 10 11 10 20 14 20 10 0 -4 9 0 20 10
11 10 20 14 20 9 0 -5 5 -2 10 6 9 13 10 13 11 0 0 -10 3 -9 10 5 l9 20 -3
-20 c-2 -11 -9 -19 -16 -17 -7 1 -9 -2 -5 -9 4 -7 3 -9 -4 -5 -6 3 -13 2 -17
-4 -4 -6 -11 -7 -17 -4 -7 5 -8 2 -3 -6 6 -9 4 -11 -5 -5 -8 5 -11 4 -6 -3 4
-7 -1 -10 -14 -7 -13 3 -18 0 -14 -7 5 -7 2 -8 -6 -3 -9 6 -11 4 -5 -5 5 -9 4
-11 -4 -6 -6 4 -14 0 -17 -9 -6 -13 -8 -14 -15 -3 -7 10 -9 10 -9 -2 0 -13 -2
-13 -11 0 -9 13 -10 12 -5 -3 4 -12 2 -16 -6 -11 -7 4 -8 3 -4 -5 4 -7 2 -10
-5 -9 -7 2 -14 -6 -16 -17 l-3 -20 9 20 c7 14 10 15 10 5 1 -13 2 -13 11 0 5
8 10 11 10 6 0 -5 9 -1 20 9 11 10 20 14 20 9 0 -5 7 0 15 10 8 11 15 16 15
11 0 -4 9 0 20 10 11 10 20 14 20 10 0 -4 9 0 20 10 11 10 20 14 20 10 0 -4 9
0 20 10 11 10 20 15 20 10 0 -4 7 -2 15 5 8 7 16 27 16 44 l2 31 7 -35 7 -35
3 40 3 40 7 -35 7 -35 3 40 3 40 7 -35 7 -35 3 40 3 40 7 -35 7 -35 3 40 3 40
7 -35 7 -35 3 40 3 40 7 -35 7 -35 3 40 3 40 7 -35 7 -35 3 40 3 40 7 -35 7
-35 3 40 3 40 7 -35 7 -35 4 35 c2 19 8 33 13 32 5 -2 13 2 17 10 7 10 9 10
10 -2 0 -10 3 -9 10 5 7 15 8 12 4 -15 -4 -27 -3 -30 4 -15 7 14 10 15 10 5 1
-12 3 -12 10 -2 4 8 12 12 17 10 5 -1 10 8 11 22 l2 25 -8 -25 -9 -25 -2 25
-2 25 -9 -25 -8 -25 2 25 c1 14 7 24 12 23 6 -1 17 4 25 11 8 8 23 12 32 11 9
-2 19 4 22 12 3 8 10 12 15 9 5 -3 14 1 21 9 7 8 16 13 20 10 5 -3 11 -1 15 5
4 6 11 8 16 5 5 -4 9 0 9 7 0 11 2 10 9 0 7 -11 9 -10 15 3 3 9 10 13 16 10 5
-3 10 0 10 7 0 11 2 10 9 0 7 -11 9 -10 15 3 3 9 10 13 16 10 5 -3 10 0 10 7
0 9 3 9 10 -2 8 -13 10 -12 10 4 0 11 3 17 6 13 3 -3 3 -15 -1 -28 -6 -17 -9
-19 -16 -8 -7 12 -9 11 -9 -1 0 -13 -1 -13 -11 0 -8 12 -9 9 -4 -10 5 -19 4
-22 -4 -10 -10 13 -11 13 -11 0 0 -13 -1 -13 -10 0 -9 13 -10 13 -10 0 0 -13
-2 -13 -11 0 -9 13 -10 12 -5 -3 3 -10 2 -15 -3 -12 -5 3 -12 1 -16 -5 -4 -6
-10 -8 -15 -5 -5 3 -11 1 -15 -5 -4 -6 -11 -8 -16 -5 -5 3 -6 -2 -3 -12 5 -15
4 -16 -5 -3 -9 13 -11 13 -11 0 0 -12 -2 -12 -9 -2 -7 11 -9 10 -15 -3 -3 -9
-11 -13 -17 -9 -7 4 -9 3 -5 -4 4 -7 -1 -10 -13 -7 -15 3 -18 -1 -13 -18 5
-20 6 -20 13 -1 5 13 8 14 8 4 1 -13 2 -13 11 0 5 8 10 11 10 6 0 -5 7 -3 15
4 8 7 15 9 15 4 1 -5 10 2 20 15 12 14 20 18 20 10 0 -11 2 -11 10 1 5 8 10
11 10 6 0 -5 7 -3 15 4 8 7 15 9 15 5 0 -5 9 0 20 10 11 10 20 14 20 9 0 -5 7
0 15 10 11 14 15 16 15 5 0 -12 2 -12 10 1 5 8 10 11 10 5 0 -5 6 -3 13 5 7 9
21 15 32 15 12 0 21 7 22 20 l3 20 -9 -20 -10 -20 -1 20 -1 20 -9 -20 -9 -20
-1 20 -1 20 -10 -20 c-7 -17 -8 -17 -6 -2 1 10 6 17 11 17 5 -1 13 4 17 12 7
10 9 10 9 -2 1 -12 3 -11 11 3 6 9 14 15 19 12 4 -3 10 2 13 10 4 8 15 12 26
10 11 -2 22 3 25 10 3 8 14 12 26 10 11 -2 20 1 20 8 0 7 4 6 10 -3 8 -12 10
-12 10 5 1 18 2 17 11 -4 5 -13 7 -26 4 -29 -3 -3 -5 1 -5 9 0 11 -2 11 -10
-1 -9 -13 -10 -13 -10 0 0 13 -1 13 -10 0 -9 -13 -10 -13 -10 0 -1 9 -6 5 -15
-10 -9 -15 -14 -19 -15 -10 0 13 -1 13 -10 0 -9 -13 -10 -13 -10 0 -1 9 -6 5
-15 -10 -9 -15 -14 -19 -15 -10 0 13 -1 13 -10 0 -8 -12 -10 -12 -10 -1 0 8
-3 12 -6 8 -3 -3 -1 -14 5 -24 8 -14 10 -14 11 -3 0 13 1 13 10 0 7 -11 10
-11 10 -2 0 7 5 10 10 7 6 -3 13 1 16 10 6 13 8 14 15 3 7 -10 9 -11 9 0 0 7
5 10 10 7 6 -3 13 1 16 10 6 13 8 14 15 3 7 -10 9 -11 9 0 0 7 4 11 9 7 6 -3
14 3 20 12 8 14 10 15 11 3 0 -12 2 -12 9 -2 4 8 12 13 17 12 5 0 10 7 11 17
2 15 1 15 -6 -2 l-10 -20 -1 20 -1 20 -9 -20 -9 -20 -1 20 -1 20 -10 -20 c-7
-17 -8 -17 -6 -2 1 10 6 17 11 17 5 -1 13 4 17 12 7 11 9 10 9 -1 0 -11 4 -9
15 5 8 10 15 15 15 10 0 -5 7 -3 15 4 8 7 15 9 15 5 0 -5 8 -1 18 7 9 8 24 14
32 13 8 0 18 4 22 10 5 6 8 4 8 -4 0 -11 4 -9 15 5 8 10 15 15 15 10 0 -5 10
-1 23 10 12 10 17 12 10 5 -9 -10 -9 -20 -2 -35 9 -19 9 -20 -4 -3 -12 15 -16
15 -20 3 -4 -9 -15 -13 -27 -11 -11 2 -18 0 -15 -5 3 -5 -4 -7 -15 -5 -13 3
-18 0 -14 -7 4 -6 3 -8 -4 -4 -6 3 -15 -2 -21 -11 -8 -14 -10 -15 -11 -3 0 13
-1 13 -10 0 -9 -13 -10 -13 -10 0 0 13 -1 13 -10 0 -8 -12 -10 -12 -10 -1 0 8
-2 12 -5 9 -3 -3 -1 -16 4 -29 9 -21 10 -22 11 -4 0 17 2 17 10 5 6 -9 10 -10
10 -3 0 7 9 10 20 8 12 -2 23 2 26 9 3 8 13 13 22 11 9 -1 22 0 27 4 6 3 13 6
18 7 4 1 9 3 12 4 3 1 11 3 17 4 14 1 16 108 5 386 -13 357 -19 3814 -8 4445
26 1484 71 2012 223 2610 136 537 384 1076 673 1464 252 339 615 693 946 924
663 461 1570 741 2574 792 66 3 145 8 175 10 131 10 736 31 1060 36 653 10
4354 3 4675 -9 709 -27 922 -40 1220 -73 566 -63 1100 -206 1559 -415 630
-288 1174 -742 1594 -1331 349 -489 604 -1146 721 -1863 67 -412 96 -830 121
-1755 13 -480 13 -4191 0 -4660 -19 -693 -45 -1164 -81 -1455 -100 -831 -348
-1534 -746 -2114 -264 -386 -665 -782 -1058 -1046 -532 -359 -1216 -603 -1967
-704 -201 -27 -486 -57 -588 -61 -104 -4 -141 -10 -149 -24 -6 -10 -10 -9 -14
3 -4 9 -12 16 -19 16 -9 0 -10 -3 -2 -8 18 -11 64 -109 56 -117 -4 -5 -1 -4 7
0 11 6 13 4 8 -9 -5 -11 -3 -15 5 -10 8 5 9 2 5 -10 -5 -11 -3 -15 5 -10 8 5
9 2 5 -10 -5 -11 -3 -15 4 -10 7 4 10 1 7 -7 -3 -8 7 -39 23 -70 15 -31 25
-60 21 -64 -4 -5 -1 -4 7 0 11 6 13 4 8 -9 -5 -11 -3 -15 4 -10 7 4 10 1 7 -7
-3 -8 3 -30 13 -50 10 -20 15 -40 11 -44 -4 -5 -1 -4 7 0 11 6 13 4 8 -9 -5
-11 -3 -15 4 -10 7 4 10 1 7 -7 -3 -8 3 -30 13 -50 10 -20 15 -40 11 -44 -4
-5 -1 -5 7 0 9 5 12 3 9 -6 -3 -8 3 -31 14 -52 10 -20 16 -37 13 -37 -3 0 4
-18 15 -40 11 -22 18 -40 15 -40 -3 0 4 -18 15 -40 11 -22 18 -40 15 -40 -3 0
4 -18 15 -40 11 -22 18 -40 15 -40 -3 0 1 -14 10 -30 9 -17 13 -30 10 -30 -3
0 4 -18 15 -40 11 -22 18 -40 15 -40 -3 0 1 -14 10 -30 9 -17 13 -30 10 -30
-3 0 1 -13 10 -30 9 -16 13 -30 10 -30 -3 0 1 -13 10 -30 8 -16 15 -33 15 -37
1 -5 5 -24 10 -43 5 -19 9 -37 8 -40 -1 -3 4 -15 11 -28 7 -13 14 -32 17 -43
2 -10 6 -28 8 -39 3 -11 8 -25 11 -30 3 -5 8 -20 11 -32 6 -28 7 -32 24 -88
15 -52 17 -57 24 -87 3 -13 8 -31 11 -40 17 -64 95 -373 99 -395 3 -16 8 -40
11 -55 3 -16 10 -44 15 -63 5 -19 12 -51 15 -70 3 -19 8 -42 10 -50 2 -8 7
-31 10 -50 3 -19 8 -42 10 -50 2 -8 7 -31 10 -50 3 -19 8 -48 11 -65 3 -16 13
-75 23 -130 l17 -100 544 -3 c910 -5 1463 20 1960 89 1041 144 1918 559 2609
1234 372 364 648 740 876 1195 288 576 430 1103 510 1900 24 232 38 4012 31
7995 -7 3514 -10 3938 -32 4185 -71 798 -221 1345 -538 1965 -220 431 -433
723 -780 1071 -376 376 -741 639 -1196 861 -522 255 -1167 425 -1830 483 -69
5 -147 12 -175 15 -27 2 -165 7 -305 10 -140 4 -271 9 -290 12 -44 7 -10024
16 -10031 9z m7852 -18271 c5 4 6 -2 2 -11 -4 -12 -3 -15 5 -10 8 5 10 1 5
-10 -4 -12 -3 -15 5 -10 8 5 10 1 5 -10 -5 -13 -3 -15 7 -9 8 5 11 4 7 -2 -4
-6 6 -34 22 -63 16 -29 27 -60 23 -68 -3 -10 -1 -13 6 -8 8 5 10 1 5 -10 -4
-12 -3 -15 5 -10 8 5 10 1 5 -10 -5 -13 -3 -15 7 -9 9 5 11 4 6 -3 -4 -7 4
-31 17 -54 14 -24 22 -49 20 -57 -4 -8 -1 -11 6 -7 7 5 9 1 4 -10 -5 -13 -3
-15 7 -9 8 5 11 4 6 -3 -3 -6 2 -25 13 -43 11 -17 17 -39 13 -47 -3 -10 -1
-13 6 -8 8 5 10 1 5 -10 -5 -13 -3 -15 7 -9 9 5 11 4 6 -3 -4 -7 0 -21 8 -33
8 -12 12 -28 9 -37 -4 -10 -2 -13 5 -8 8 5 10 1 5 -10 -4 -12 -3 -15 5 -10 8
4 10 2 6 -7 -3 -8 -1 -18 5 -21 6 -4 7 -14 4 -23 -4 -11 -3 -14 5 -9 8 5 10 1
5 -10 -4 -12 -3 -15 5 -10 8 4 10 2 6 -7 -3 -8 -1 -18 5 -21 6 -4 7 -14 4 -23
-4 -11 -3 -14 5 -9 8 5 10 1 5 -10 -4 -12 -3 -15 5 -10 8 4 10 2 6 -7 -3 -8
-1 -18 5 -21 6 -4 7 -14 4 -23 -4 -11 -3 -14 5 -9 8 5 10 1 5 -10 -4 -12 -3
-15 5 -10 8 4 10 2 6 -7 -3 -8 -1 -18 5 -21 6 -4 7 -14 4 -23 -4 -11 -3 -14 5
-9 8 4 10 2 6 -7 -3 -8 -1 -18 5 -21 6 -4 7 -14 4 -23 -4 -11 -3 -14 5 -9 8 5
10 1 5 -10 -4 -12 -3 -15 5 -10 8 4 10 2 6 -7 -3 -8 -1 -18 5 -21 6 -4 7 -14
4 -23 -4 -11 -3 -14 5 -9 8 4 10 2 6 -7 -3 -8 -1 -18 5 -21 6 -4 7 -14 4 -23
-4 -11 -3 -14 5 -9 8 4 10 2 6 -7 -3 -8 -1 -18 5 -21 6 -4 7 -14 4 -23 -4 -11
-3 -14 5 -9 8 4 10 2 6 -7 -3 -8 -1 -18 5 -21 6 -4 7 -14 4 -23 -4 -10 -2 -14
4 -10 6 4 8 -3 5 -20 -3 -18 -1 -24 6 -19 8 4 10 2 6 -7 -3 -8 -1 -18 5 -21 6
-4 7 -14 4 -23 -4 -11 -3 -14 5 -9 8 4 10 2 6 -7 -3 -8 -1 -18 5 -21 6 -4 8
-13 5 -20 -3 -8 -1 -17 5 -20 6 -4 7 -14 4 -23 -4 -11 -3 -14 5 -9 8 4 10 2 6
-7 -3 -8 -1 -18 5 -21 6 -4 8 -13 5 -20 -3 -8 -1 -17 5 -20 6 -4 7 -14 4 -23
-4 -10 -2 -14 4 -10 6 4 8 -3 5 -20 -3 -18 -1 -24 6 -19 8 4 10 2 6 -7 -3 -8
-1 -18 5 -21 6 -4 8 -13 5 -20 -3 -8 -1 -17 5 -20 6 -4 8 -13 5 -20 -3 -8 -1
-17 5 -20 6 -4 7 -14 4 -23 -4 -10 -2 -14 4 -10 6 4 8 -3 5 -20 -3 -16 -1 -24
5 -20 6 4 8 -4 5 -20 -3 -16 -1 -24 5 -20 6 4 8 -4 5 -20 -3 -16 -1 -24 5 -20
6 4 8 -4 5 -20 -3 -16 -1 -24 5 -20 6 4 8 -4 5 -20 -3 -16 -1 -24 5 -20 6 4 8
-4 5 -20 -3 -16 -1 -24 5 -20 6 4 8 -4 5 -20 -3 -16 -1 -24 5 -20 6 4 8 -4 5
-20 -3 -18 -1 -24 6 -19 8 5 10 2 6 -8 -3 -9 -3 -24 1 -33 5 -10 9 -22 10 -28
1 -5 3 -14 5 -20 1 -5 1 -21 0 -34 -1 -13 3 -21 8 -17 5 3 7 -6 4 -21 -3 -18
-1 -24 6 -19 8 5 10 2 6 -8 -3 -9 -3 -24 1 -33 5 -10 7 -29 6 -42 -2 -14 1
-21 8 -17 7 4 8 1 5 -8 -3 -9 -3 -24 1 -34 5 -9 7 -28 6 -41 -2 -14 1 -21 8
-17 7 4 8 1 5 -8 -3 -9 -3 -24 1 -33 5 -10 7 -28 6 -40 -1 -11 2 -24 7 -27 5
-3 7 -18 4 -32 -3 -16 -1 -24 4 -21 6 3 8 -9 6 -30 -3 -20 -1 -33 5 -30 5 3 7
-10 5 -30 -3 -20 -1 -33 5 -30 5 3 7 -10 4 -31 l-5 -37 -7 35 -6 35 -3 -35
c-1 -24 -8 -3 -20 65 -10 55 -21 115 -24 133 -3 17 -8 47 -11 65 -3 17 -8 39
-10 47 -2 8 -7 31 -10 50 -3 19 -8 42 -10 50 -2 8 -7 31 -10 50 -3 19 -10 51
-15 70 -5 19 -12 47 -15 62 -3 16 -8 40 -11 55 -4 23 -82 332 -99 396 -3 9 -8
27 -11 40 -7 30 -9 35 -24 87 -17 56 -18 60 -24 88 -3 12 -8 27 -11 32 -3 5
-8 19 -11 30 -2 11 -6 29 -8 39 -3 11 -9 28 -14 38 -6 10 -10 20 -10 23 0 3
-5 23 -11 45 -6 22 -10 43 -11 48 0 4 -7 21 -15 37 -9 17 -13 30 -10 30 3 0
-1 14 -10 30 -9 17 -13 30 -10 30 3 0 -1 14 -10 30 -9 17 -13 30 -10 30 3 0
-4 18 -15 40 -11 22 -18 40 -15 40 3 0 -1 14 -10 30 -9 17 -13 30 -10 30 3 0
-4 18 -15 40 -11 22 -18 40 -15 40 3 0 -4 18 -15 40 -11 22 -18 40 -15 40 3 0
-4 18 -15 40 -11 22 -18 40 -15 40 3 0 -2 15 -11 32 -9 18 -18 40 -18 48 -1 8
-11 34 -23 56 -12 23 -20 44 -17 47 3 3 -8 29 -25 59 -17 30 -29 57 -26 60 3
3 -13 39 -35 80 -22 41 -37 77 -34 81 3 3 -12 39 -35 80 -27 50 -39 81 -34 93
4 11 8 13 11 6 2 -7 8 -10 13 -7z"/>
<path d="M22390 3036 c0 -5 18 -42 41 -83 23 -41 38 -77 35 -80 -3 -4 12 -40
34 -81 22 -41 38 -77 35 -80 -3 -3 9 -30 26 -60 17 -30 28 -56 25 -59 -3 -3 5
-24 17 -47 12 -22 22 -48 23 -56 0 -8 9 -30 18 -48 9 -17 14 -32 11 -32 -3 0
4 -18 15 -40 11 -22 18 -40 15 -40 -3 0 4 -18 15 -40 11 -22 18 -40 15 -40 -3
0 4 -18 15 -40 11 -22 18 -40 15 -40 -3 0 1 -13 10 -30 9 -16 13 -30 10 -30
-3 0 4 -18 15 -40 11 -22 18 -40 15 -40 -3 0 1 -13 10 -30 9 -16 13 -30 10
-30 -3 0 1 -13 10 -30 9 -16 13 -30 10 -30 -3 0 1 -13 10 -30 8 -16 15 -33 15
-37 1 -5 5 -26 11 -48 6 -22 10 -40 8 -40 -1 0 3 -10 10 -23 7 -13 14 -32 17
-43 2 -10 6 -28 8 -39 3 -11 8 -25 11 -30 3 -5 8 -20 11 -32 6 -28 7 -32 24
-88 15 -52 17 -57 24 -87 3 -13 8 -31 11 -40 17 -64 95 -373 99 -396 3 -15 8
-39 11 -55 3 -15 10 -43 15 -62 5 -19 12 -51 15 -70 3 -19 8 -42 10 -50 2 -8
7 -31 10 -50 3 -19 8 -42 10 -50 2 -8 7 -31 10 -50 9 -54 15 -89 30 -165 l14
-70 -6 60 c-4 33 -8 71 -9 85 -1 14 -5 33 -9 42 -4 10 -5 24 -2 32 3 7 1 18
-5 24 -5 5 -11 28 -12 50 -2 22 -7 45 -11 51 -3 7 -8 29 -10 50 -1 21 -5 43
-7 47 -11 19 -30 115 -24 121 3 3 1 12 -4 19 -6 6 -10 16 -9 20 1 5 -1 16 -4
24 -9 21 -88 340 -91 365 -1 12 -6 27 -10 34 -4 7 -5 15 -2 18 3 3 1 12 -4 19
-6 6 -10 16 -8 20 1 5 -3 19 -10 31 -7 12 -14 37 -16 55 -3 18 -6 35 -7 38 -1
3 -3 10 -3 15 -1 6 -8 21 -15 33 -7 13 -10 26 -7 29 3 4 1 12 -4 19 -6 6 -10
16 -8 20 1 5 -3 19 -10 31 -7 12 -11 26 -10 30 1 4 -3 18 -10 30 -7 12 -13 34
-15 50 -2 15 -9 38 -15 50 -7 12 -11 26 -10 30 1 4 -3 18 -10 30 -7 12 -11 26
-10 30 1 4 -3 18 -10 30 -7 12 -11 26 -10 30 1 4 -6 22 -15 40 -9 18 -16 36
-15 40 1 4 -3 18 -10 30 -7 12 -11 26 -10 30 1 4 -6 22 -15 40 -9 18 -16 36
-15 40 1 4 -6 22 -15 40 -9 18 -16 36 -15 40 1 4 -6 22 -15 40 -9 18 -16 36
-15 40 1 4 -6 23 -16 41 -9 19 -15 36 -12 39 3 3 -6 25 -21 50 -14 24 -23 47
-19 50 3 3 -8 30 -25 60 -17 30 -29 57 -25 60 3 3 -13 39 -35 79 -22 40 -38
77 -35 82 2 4 -18 48 -44 97 -27 50 -50 86 -50 81z"/>
<path d="M17779 17166 c-2 -2 -265 -6 -584 -10 -319 -3 -593 -8 -610 -10 -16
-3 -115 -7 -220 -11 -810 -25 -1269 -98 -1725 -272 -372 -142 -646 -319 -921
-595 -304 -305 -484 -602 -630 -1038 -132 -396 -190 -768 -219 -1410 -18 -391
-26 -681 -31 -1030 -7 -562 -4 -3884 4 -4135 4 -132 8 -272 9 -311 l2 -70 35
1 c28 0 36 5 38 20 3 19 3 19 -6 0 l-10 -20 -1 20 -1 20 -9 -20 -9 -20 -1 20
-1 20 -9 -20 c-9 -20 -10 -17 -10 23 0 4 17 7 38 7 20 -1 40 4 44 10 5 6 8 4
8 -5 0 -13 1 -13 10 0 9 13 10 13 10 0 0 -13 1 -13 10 0 9 13 10 13 11 0 0
-10 3 -9 8 4 7 19 8 19 13 0 5 -18 1 -21 -32 -19 -33 2 -37 -1 -32 -19 5 -19
6 -19 13 0 5 13 8 14 8 4 1 -13 2 -13 11 0 9 13 10 13 10 0 0 -13 1 -13 10 0
9 13 10 13 10 0 0 -13 1 -13 10 0 9 13 10 13 10 0 0 -9 3 -11 8 -5 4 6 18 10
32 10 14 -1 30 1 35 4 6 3 28 6 50 6 32 0 40 4 42 20 3 20 3 20 -6 0 l-10 -20
-1 20 -1 20 -9 -20 -9 -20 -1 20 -1 20 -9 -20 -9 -20 -1 20 -1 20 -9 -20 -9
-20 -1 20 -1 20 -9 -20 -9 -20 -1 20 -1 20 -9 -20 -9 -20 -1 20 -1 20 -10 -20
-9 -20 3 20 c2 15 10 20 32 20 17 0 35 3 40 6 6 3 26 5 45 4 19 0 38 4 42 10
5 6 8 4 8 -5 0 -13 1 -13 10 0 9 13 10 13 10 0 0 -13 1 -13 10 0 9 13 10 13
10 0 0 -13 1 -13 10 0 9 13 10 13 11 0 0 -10 3 -8 9 5 l9 20 1 -20 1 -20 10
20 9 20 -3 -20 c-2 -17 -10 -20 -47 -20 -37 0 -45 -3 -47 -20 l-3 -20 9 20 10
20 1 -20 1 -20 9 20 c6 13 9 15 9 5 1 -13 2 -13 11 0 9 13 10 13 10 0 0 -13 1
-13 10 0 9 13 10 13 10 0 0 -13 1 -13 10 0 9 13 10 13 10 0 0 -13 1 -13 10 0
9 13 10 13 10 0 0 -9 3 -11 8 -5 4 6 27 10 52 10 25 -1 50 1 55 4 6 3 33 6 60
6 46 0 50 2 52 25 l2 25 -8 -25 -9 -25 -2 25 -2 25 -8 -25 -8 -25 -2 25 -2 25
-8 -25 -8 -25 -2 25 -2 25 -8 -25 -8 -25 -2 25 -2 25 -9 -25 -8 -25 2 25 c2
23 6 25 52 25 28 0 55 3 60 6 6 3 45 5 88 4 47 0 77 3 77 10 0 5 5 3 10 -5 9
-13 10 -13 10 0 0 13 1 13 10 0 9 -13 10 -13 10 0 0 13 1 13 10 0 9 -13 10
-13 10 0 0 13 1 13 10 0 9 -13 10 -13 10 0 0 13 1 13 10 0 9 -13 10 -13 10 0
0 13 1 13 10 0 9 -13 10 -13 10 0 0 13 1 13 10 0 9 -13 10 -13 10 0 0 13 1 13
10 0 9 -13 10 -13 10 0 0 12 2 12 9 2 7 -11 9 -11 13 0 8 21 615 19 628 -2 9
-13 10 -13 10 0 0 13 1 13 10 0 9 -13 10 -13 10 0 0 13 1 13 10 0 9 -13 10
-13 10 0 0 13 1 13 10 0 9 -13 10 -13 10 0 0 13 1 13 10 0 9 -13 10 -13 10 0
0 13 1 13 10 0 9 -13 10 -13 10 0 0 13 1 13 10 0 9 -13 10 -13 10 0 0 13 1 13
10 0 9 -13 10 -13 10 0 0 13 1 13 10 0 9 -13 10 -13 10 0 0 13 1 13 10 0 9
-13 10 -13 10 0 0 9 3 11 8 5 4 -6 36 -10 72 -10 36 1 70 -1 75 -4 6 -3 37 -6
70 -6 52 0 60 -3 62 -20 l3 -20 -9 20 -10 20 -1 -20 -1 -20 -9 20 -9 20 -1
-20 -1 -20 -9 20 -9 20 -1 -20 -1 -20 -9 20 -9 20 -1 -20 -1 -20 -9 20 -9 20
-1 -20 -1 -20 -9 20 -9 20 -1 -20 -1 -20 -9 20 -9 20 -1 -20 -1 -20 -9 20 -9
20 -1 -20 -1 -20 -9 20 -9 20 -1 -20 -1 -20 -9 20 -9 20 -1 -20 -1 -20 -9 20
-9 20 -1 -20 -1 -20 -10 20 c-9 20 -9 20 -6 0 2 -18 10 -20 72 -20 39 1 73 -4
77 -10 5 -6 8 -4 8 5 0 13 1 13 10 0 9 -13 10 -13 10 0 0 13 1 13 10 0 9 -13
10 -13 10 0 0 13 1 13 10 0 9 -13 10 -13 10 0 0 13 1 13 10 0 9 -13 10 -13 10
0 1 13 2 13 10 -1 7 -11 23 -15 60 -14 30 1 50 -3 50 -9 0 -6 5 -4 10 4 9 13
10 13 10 0 0 -13 1 -13 10 0 9 13 10 13 10 0 0 -13 1 -13 10 0 9 13 10 13 10
0 0 -13 1 -13 10 0 8 12 10 12 11 -5 l0 -20 9 20 9 20 1 -20 1 -20 9 20 c12
27 12 43 0 25 -9 -13 -10 -13 -10 0 0 13 -1 13 -10 0 -9 -13 -10 -13 -10 0 0
13 -1 13 -10 0 -9 -13 -10 -13 -10 0 0 13 -1 13 -10 0 -9 -13 -10 -13 -10 0 0
13 -1 13 -10 0 -9 -13 -10 -13 -10 0 0 13 -1 13 -10 0 -9 -13 -10 -13 -10 0 0
13 -1 13 -10 0 -9 -13 -10 -13 -10 0 0 13 -1 13 -10 0 -9 -13 -10 -13 -10 0 0
12 -2 13 -9 1 -7 -11 -10 -9 -16 8 -4 13 -4 25 -1 28 3 4 6 -2 7 -13 0 -18 1
-18 9 1 l9 20 0 -20 c1 -17 3 -17 11 -5 9 13 10 13 10 0 0 -13 1 -13 10 0 9
13 10 13 10 0 0 -13 1 -13 10 0 9 13 10 13 10 0 0 -13 1 -13 10 0 9 13 10 13
10 0 0 -13 1 -13 10 0 5 8 10 10 10 4 0 -6 17 -10 40 -9 28 1 44 -3 50 -14 8
-14 9 -14 10 -1 0 13 1 13 10 0 9 -13 10 -13 10 0 0 13 1 13 10 0 9 -13 10
-13 10 0 0 9 3 11 8 5 4 -6 25 -11 47 -10 37 0 40 -2 45 -30 4 -26 10 -30 38
-31 17 -1 34 -3 37 -4 3 -1 19 -4 35 -5 17 -1 32 -4 35 -5 3 -1 14 -4 25 -5
11 -1 22 -4 25 -5 3 -1 19 -4 35 -5 17 -1 32 -4 35 -5 3 -1 13 -3 23 -4 9 -1
22 -4 27 -7 6 -3 21 -5 35 -4 14 0 28 -4 32 -10 5 -6 8 -4 8 5 0 13 1 13 10 0
9 -13 10 -13 11 0 0 10 3 9 8 -4 7 -19 8 -19 13 1 5 17 1 20 -23 18 -16 -1
-27 1 -24 5 3 4 -9 6 -25 5 -16 -1 -28 1 -25 5 3 4 -9 6 -25 5 -16 -1 -28 1
-25 5 3 4 -9 6 -25 5 -17 -1 -32 1 -35 5 -3 4 -18 6 -34 5 -24 -2 -28 1 -23
18 5 20 6 20 13 1 5 -13 8 -14 8 -4 1 13 2 13 11 0 9 -13 10 -13 10 0 0 13 1
13 10 0 9 -13 10 -13 10 0 0 9 3 11 8 5 4 -6 18 -10 32 -10 14 1 30 -1 35 -4
6 -3 18 -6 28 -7 9 -1 19 -3 22 -4 3 -1 14 -4 25 -5 11 -1 22 -4 25 -5 3 -1
14 -4 25 -5 11 -1 22 -4 25 -5 3 -1 14 -4 25 -5 11 -1 22 -4 25 -5 3 -1 15 -3
27 -4 15 -1 24 -8 25 -21 l3 -20 -9 20 -10 20 -1 -20 -1 -20 -9 20 -9 20 -1
-20 -1 -20 -9 20 -9 20 -1 -20 -1 -20 -9 20 -9 20 -1 -20 -1 -20 -10 20 c-9
20 -9 20 -6 0 1 -13 10 -20 25 -21 12 -1 24 -3 27 -4 3 -1 13 -3 23 -4 9 -1
22 -4 27 -7 6 -4 18 -5 28 -4 9 2 17 -2 17 -8 0 -7 5 -5 10 3 8 13 10 13 10 1
0 -11 4 -9 15 5 15 19 15 19 9 -1 -4 -15 -3 -17 4 -6 8 11 11 10 15 -5 3 -14
5 -15 6 -3 0 9 -8 27 -20 40 -19 23 -43 54 -120 160 -20 27 -44 60 -55 72 -10
13 -23 31 -29 39 -5 9 -32 49 -60 89 -27 41 -55 83 -61 94 -195 331 -302 557
-395 834 -104 308 -159 564 -194 896 -21 198 -21 591 0 790 82 789 373 1495
873 2120 128 160 425 455 592 589 615 491 1294 772 2095 868 70 8 226 13 430
13 353 -1 499 -15 797 -75 759 -156 1453 -528 2009 -1080 638 -633 1027 -1423
1151 -2340 30 -224 33 -728 5 -945 -102 -788 -381 -1453 -860 -2050 -525 -655
-1268 -1138 -2084 -1356 -109 -29 -392 -90 -423 -91 -8 0 -64 -7 -125 -15
-114 -15 -196 -23 -277 -25 -32 0 -45 -5 -41 -12 4 -6 0 -5 -9 2 -16 13 -140
13 -131 -1 2 -4 9 -5 14 -2 5 4 9 0 9 -7 0 -11 2 -10 9 0 6 10 10 8 14 -8 3
-12 10 -19 16 -15 6 3 11 -2 12 -12 0 -10 6 -3 14 17 7 19 14 27 14 17 1 -9 7
-16 13 -15 7 2 14 -8 15 -22 l2 -25 -8 25 -9 25 -2 -25 -2 -25 -9 25 c-7 23
-8 24 -6 2 1 -12 6 -22 10 -22 5 1 15 -7 23 -17 7 -10 14 -14 14 -9 0 5 9 -3
21 -18 11 -14 24 -24 29 -21 4 3 11 -2 14 -11 4 -9 9 -14 13 -11 3 4 14 -5 25
-18 11 -14 23 -23 28 -20 4 3 11 -2 14 -11 4 -9 9 -14 13 -11 3 4 15 -5 25
-19 11 -14 23 -23 25 -20 3 3 15 -6 25 -20 11 -14 23 -23 25 -20 3 3 15 -6 25
-20 11 -14 23 -23 25 -20 3 3 14 -6 25 -19 11 -14 23 -23 28 -20 4 3 15 -7 24
-20 9 -14 20 -23 25 -21 4 3 18 -8 30 -25 12 -16 26 -27 32 -24 5 4 9 0 9 -7
0 -9 3 -9 10 2 8 12 10 11 10 -6 0 -23 23 -48 33 -37 4 3 10 -2 13 -11 5 -14
9 -15 15 -4 6 9 9 7 9 -8 0 -20 40 -67 40 -48 0 5 5 2 10 -6 9 -13 10 -13 11
0 0 8 5 4 10 -10 l8 -25 -2 25 c-2 14 -8 24 -15 22 -8 -1 -11 2 -6 9 4 7 3 9
-4 6 -6 -5 -8 1 -4 15 5 21 6 21 13 2 4 -10 8 -15 8 -10 1 5 10 1 21 -9 13
-11 20 -30 19 -49 l-2 -31 -7 35 -7 35 -2 -31 c0 -17 6 -37 14 -44 8 -7 15 -9
15 -4 0 5 7 0 15 -10 11 -15 15 -16 16 -5 1 8 5 3 9 -11 7 -22 8 -23 9 -4 1
22 -21 48 -32 38 -3 -3 -3 5 1 18 5 18 7 19 10 5 2 -9 7 -15 11 -12 16 9 40
-30 43 -70 2 -25 8 -39 16 -37 6 1 12 -4 13 -10 0 -7 7 1 14 17 9 19 14 24 15
12 0 -9 6 -16 13 -15 7 2 14 -14 18 -42 l5 -45 5 40 6 40 3 -50 3 -50 7 40 7
40 3 -50 3 -50 7 40 7 40 3 -50 3 -50 7 40 7 40 3 -50 3 -50 7 40 7 40 3 -50
3 -50 7 40 7 40 2 -39 c1 -37 10 -49 116 -156 63 -64 115 -112 116 -106 1 6 5
0 9 -14 7 -21 8 -22 9 -5 1 13 -38 59 -109 130 -71 71 -110 117 -109 130 1 17
2 16 9 -5 4 -14 8 -20 9 -14 1 6 53 -42 116 -106 106 -107 115 -119 116 -156
l2 -39 7 40 7 40 2 -44 c1 -36 8 -51 41 -87 22 -24 40 -38 41 -31 1 6 5 1 9
-13 7 -22 8 -22 9 -4 1 11 -10 31 -24 44 -13 12 -22 27 -18 33 3 6 1 7 -5 4
-6 -5 -8 1 -4 15 5 19 7 20 10 5 2 -9 8 -14 14 -11 6 4 8 3 5 -3 -4 -5 7 -23
23 -38 22 -21 30 -37 29 -59 l-2 -31 -7 35 -7 35 -2 -32 c0 -17 3 -34 8 -38 6
-3 51 -53 100 -110 50 -58 91 -100 92 -93 1 7 4 4 7 -7 12 -34 314 -405 325
-398 6 4 8 0 4 -10 -7 -17 15 -41 28 -29 5 4 5 -1 2 -10 -6 -18 15 -42 28 -30
5 4 5 -1 2 -10 -6 -18 15 -42 27 -30 5 4 6 0 4 -9 -4 -21 82 -140 95 -132 6 4
8 0 4 -10 -7 -17 15 -41 28 -29 4 4 6 0 3 -8 -6 -19 28 -69 45 -66 15 2 20 13
14 29 -4 8 -6 8 -6 -2 -1 -8 -14 3 -30 24 -16 22 -27 46 -24 55 4 13 4 13 -6
0 -6 -8 -11 -10 -11 -4 0 6 -27 46 -59 89 -34 45 -57 86 -54 94 4 13 3 13 -5
3 -7 -11 -11 -10 -17 5 -5 10 -7 25 -6 33 1 12 0 12 -7 2 -7 -11 -11 -10 -17
5 -5 10 -8 25 -7 33 1 10 0 11 -4 3 -3 -8 -28 16 -62 60 -30 39 -99 126 -152
192 -78 96 -95 124 -89 140 4 11 8 14 8 8 1 -7 49 -72 109 -145 101 -125 339
-439 426 -562 l39 -56 101 0 c166 0 769 29 951 45 785 72 1357 270 1802 625
114 91 325 301 418 415 279 344 470 789 570 1329 64 350 89 697 116 1606 16
533 16 4159 0 4665 -37 1223 -80 1592 -241 2076 -146 438 -330 740 -640 1049
-284 284 -518 437 -898 585 -623 243 -1223 298 -3312 305 -470 1 -1267 4
-1771 6 -505 1 -919 1 -920 0z m5816 -1316 c326 -89 571 -334 667 -666 20 -68
23 -101 22 -239 0 -188 -17 -265 -89 -410 -241 -487 -840 -669 -1310 -397
-441 255 -596 827 -344 1268 137 239 355 396 634 458 101 22 313 15 420 -14z
m-4205 -9110 c0 9 6 6 15 -10 9 -15 15 -19 15 -10 0 10 5 7 13 -8 7 -12 16
-20 19 -17 3 3 15 -6 27 -21 12 -15 21 -21 21 -13 1 8 6 4 13 -9 7 -12 16 -20
19 -17 3 3 15 -6 27 -21 12 -15 21 -21 21 -13 1 8 6 4 13 -9 7 -12 16 -20 19
-17 3 3 15 -5 26 -19 10 -14 22 -23 25 -20 2 3 14 -6 25 -20 10 -14 22 -23 25
-20 2 3 14 -6 25 -20 10 -14 22 -23 24 -20 3 3 17 -9 31 -25 13 -16 27 -28 30
-25 2 3 14 -7 26 -22 11 -15 21 -23 21 -19 0 19 40 -30 41 -49 0 -21 1 -21 9
-1 8 18 9 18 9 2 1 -10 5 -16 10 -13 15 9 41 -29 39 -57 -2 -19 -5 -23 -15
-16 -6 6 -13 20 -15 32 -2 12 -9 23 -15 23 -7 1 -15 3 -18 4 -3 1 -10 3 -17 4
-7 0 -15 12 -18 26 -4 18 -12 25 -28 24 -14 -1 -30 9 -43 27 -11 16 -24 27
-29 24 -4 -3 -15 7 -24 20 -9 14 -21 23 -26 20 -5 -3 -17 6 -26 20 -9 13 -20
22 -25 20 -4 -3 -16 6 -25 20 -9 13 -20 22 -25 20 -4 -3 -16 6 -25 20 -9 13
-20 22 -25 19 -5 -3 -18 10 -29 28 -11 18 -20 26 -20 18 -1 -12 -3 -11 -11 3
-6 9 -14 15 -19 12 -6 -3 -19 9 -30 27 -11 18 -20 26 -20 18 -1 -12 -3 -11
-11 3 -6 9 -14 15 -19 12 -6 -3 -19 9 -30 27 -11 18 -20 27 -20 19 0 -8 -2
-12 -5 -10 -2 3 -1 16 2 29 6 22 7 23 14 4 5 -13 8 -14 9 -4z m1420 -1285 c8
18 9 18 9 2 1 -10 6 -15 11 -12 6 4 9 2 8 -2 -4 -13 59 -83 67 -75 4 4 5 2 3
-4 -4 -12 57 -85 66 -78 3 2 4 1 1 -3 -3 -3 4 -17 16 -29 11 -12 19 -30 17
-41 -2 -12 37 -69 112 -163 117 -146 183 -234 163 -215 -30 28 -299 373 -304
390 -3 11 -10 19 -16 18 -6 -1 -48 42 -94 95 -73 84 -83 101 -80 127 l5 30 4
-30 c4 -26 5 -28 12 -10z"/>
<path d="M18883 13365 c-788 -102 -1476 -546 -1889 -1221 -201 -328 -324 -693
-365 -1082 -17 -166 -7 -524 20 -677 79 -456 257 -857 537 -1205 87 -109 285
-307 394 -394 205 -163 487 -324 724 -411 632 -233 1337 -211 1949 61 287 127
555 312 782 539 399 399 649 904 737 1490 18 121 18 549 0 670 -69 460 -238
870 -501 1218 -425 563 -1064 931 -1757 1012 -157 18 -487 18 -631 0z"/>
<path d="M13958 8419 c-4 -11 -41 -14 -179 -14 l-174 0 -2 -25 -2 -25 8 25 9
25 2 -25 2 -25 8 25 8 25 2 -25 2 -25 8 25 8 25 2 -25 2 -25 8 25 8 25 2 -25
2 -25 7 25 8 25 5 -25 5 -25 2 25 c2 23 3 24 11 5 l9 -20 1 20 1 20 9 -20 9
-20 1 20 1 20 9 -20 9 -20 1 20 1 20 9 -20 9 -20 1 20 1 20 9 -20 9 -20 1 20
1 20 9 -20 9 -20 1 20 1 20 9 -20 9 -20 1 20 1 20 9 -20 9 -20 1 20 1 20 9
-20 9 -20 0 20 c1 17 3 17 11 5 9 -13 10 -13 10 0 0 13 1 13 10 0 9 -13 10
-13 10 0 0 13 1 13 10 0 9 -13 10 -13 10 0 0 13 1 13 10 0 9 -13 10 -13 10 0
0 13 1 13 10 0 9 -13 10 -13 10 0 0 13 1 13 10 0 9 -13 10 -13 10 0 0 13 1 13
10 0 9 -13 10 -13 10 0 0 13 1 13 10 0 9 -13 10 -13 10 0 0 13 1 13 10 0 9
-13 10 -13 10 0 0 13 1 13 10 0 9 -13 10 -13 10 0 0 13 1 13 10 0 9 -13 10
-13 10 0 0 13 1 13 10 0 9 -13 10 -13 10 0 0 13 1 13 10 0 9 -13 10 -13 10 0
0 13 1 13 10 0 9 -13 10 -13 10 0 0 13 1 13 10 0 9 -13 10 -13 10 0 0 13 1 13
10 0 9 -13 10 -13 10 0 0 13 1 13 10 0 9 -13 10 -13 10 0 0 13 1 13 10 0 9
-13 10 -13 10 0 0 13 1 13 10 0 9 -13 10 -13 10 0 0 13 1 13 10 0 9 -13 10
-13 10 0 0 13 1 13 10 0 9 -13 10 -13 10 0 0 13 1 13 10 0 9 -13 10 -13 10 0
0 13 1 13 10 0 9 -13 10 -13 10 0 0 13 1 13 10 0 9 -13 10 -13 10 0 0 13 1 13
10 0 9 -13 10 -13 10 0 0 13 1 13 10 0 9 -13 10 -13 10 0 0 13 1 13 10 0 9
-13 10 -13 10 0 0 13 1 13 10 0 9 -13 10 -13 10 0 0 13 1 13 10 0 9 -13 10
-13 10 0 0 13 1 13 10 0 9 -13 10 -13 10 0 0 13 1 13 10 0 9 -13 10 -13 10 0
0 13 1 13 10 0 9 -13 10 -13 10 0 0 13 1 13 10 0 9 -13 10 -13 10 0 0 13 1 13
10 0 9 -13 10 -13 10 0 0 13 1 13 10 0 9 -13 10 -13 10 0 0 13 1 13 10 0 9
-13 10 -13 10 0 0 13 1 13 10 0 9 -13 10 -13 10 0 0 13 1 13 10 0 9 -13 10
-13 11 0 0 10 3 8 9 -5 l9 -20 1 20 1 20 9 -20 9 -20 1 20 1 20 9 -20 9 -20 1
20 1 20 9 -20 9 -20 1 20 1 20 9 -20 9 -20 1 20 1 20 9 -20 9 -20 1 20 1 20 9
-20 9 -20 1 20 c1 20 2 20 9 1 8 -20 8 -20 13 0 5 19 0 20 -114 19 -97 -1
-121 2 -128 15 -8 13 -9 13 -10 0 0 -13 -1 -13 -10 0 -9 13 -10 13 -10 0 0
-13 -1 -13 -10 0 -9 13 -10 13 -10 0 0 -13 -1 -13 -10 0 -9 13 -10 13 -10 0 0
-13 -1 -13 -10 0 -9 13 -10 13 -10 0 0 -13 -1 -13 -10 0 -9 13 -10 13 -10 0 0
-13 -1 -13 -10 0 -9 13 -10 13 -10 0 0 -13 -1 -13 -10 0 -9 13 -10 13 -10 0 0
-13 -1 -13 -10 0 -9 13 -10 13 -10 0 0 -13 -1 -13 -10 0 -9 13 -10 13 -10 0 0
-13 -1 -13 -10 0 -9 13 -10 13 -10 0 0 -13 -1 -13 -10 0 -9 13 -10 13 -10 0 0
-13 -1 -13 -10 0 -9 13 -10 13 -10 0 0 -13 -1 -13 -10 0 -9 13 -10 13 -10 0 0
-13 -1 -13 -10 0 -9 13 -10 13 -10 0 0 -13 -1 -13 -10 0 -9 13 -10 13 -10 0 0
-13 -1 -13 -10 0 -9 13 -10 13 -10 0 0 -13 -1 -13 -10 0 -9 13 -10 13 -10 0 0
-13 -1 -13 -10 0 -9 13 -10 13 -10 0 0 -13 -1 -13 -10 0 -9 13 -10 13 -10 0 0
-13 -1 -13 -10 0 -9 13 -10 13 -10 0 0 -13 -1 -13 -10 0 -9 13 -10 13 -10 0 0
-13 -1 -13 -10 0 -9 13 -10 13 -10 0 0 -13 -1 -13 -10 0 -9 13 -10 13 -10 0 0
-13 -1 -13 -10 0 -9 13 -10 13 -10 0 0 -13 -1 -13 -10 0 -9 13 -10 13 -10 0 0
-13 -1 -13 -10 0 -9 13 -10 13 -10 0 0 -13 -1 -13 -10 0 -9 13 -10 13 -10 0 0
-13 -1 -13 -10 0 -9 13 -10 13 -10 0 0 -13 -1 -13 -10 0 -9 13 -10 13 -10 0 0
-12 -2 -13 -9 -1 -7 11 -9 11 -13 0z"/>
<path d="M9346 6855 c-6 -22 -9 -26 -17 -14 -7 12 -9 12 -9 -1 0 -12 -2 -13
-9 -1 -6 10 -11 6 -19 -15 -8 -23 -11 -25 -12 -9 -1 16 -4 14 -15 -10 -7 -16
-14 -23 -15 -15 0 10 -6 6 -15 -10 -9 -15 -15 -19 -15 -10 0 9 -6 5 -15 -10
-9 -15 -15 -19 -15 -10 0 12 -3 11 -11 -3 -6 -9 -14 -15 -19 -12 -6 3 -19 -9
-30 -27 -11 -18 -20 -26 -20 -18 -1 12 -3 11 -11 -3 -6 -9 -14 -15 -19 -12 -6
3 -19 -9 -30 -27 -11 -18 -20 -26 -20 -18 -1 12 -3 11 -11 -3 -6 -9 -14 -15
-19 -12 -5 3 -17 -6 -26 -20 -9 -13 -20 -22 -25 -20 -4 3 -13 -4 -19 -15 -6
-11 -15 -18 -20 -15 -5 3 -14 -4 -20 -15 -6 -11 -15 -18 -20 -15 -5 3 -17 -6
-26 -20 -9 -13 -20 -23 -24 -20 -5 3 -18 -7 -30 -22 -12 -16 -26 -28 -31 -28
-9 0 -10 -1 -8 -37 1 -22 1 -22 9 2 4 14 9 18 9 10 1 -12 4 -11 12 3 6 9 14
15 19 12 5 -3 17 6 26 20 9 13 20 23 24 20 5 -3 17 6 28 20 11 13 22 22 25 19
2 -3 14 7 26 22 11 15 21 23 21 18 1 -5 10 2 20 15 11 13 20 19 20 15 1 -5 9
1 19 13 10 12 21 20 24 17 2 -3 14 6 25 20 10 14 22 23 25 19 4 -3 9 2 13 11
3 9 10 14 14 11 5 -3 17 6 28 20 11 13 22 22 25 18 4 -3 9 2 13 11 3 9 10 14
14 11 5 -3 17 6 28 20 11 13 22 22 25 18 4 -3 9 2 13 11 3 9 10 13 15 10 5 -3
12 2 15 10 3 9 10 13 15 10 5 -3 13 5 18 18 6 13 10 17 11 8 0 -9 6 -6 15 10
9 15 15 19 15 10 0 -12 3 -11 11 3 6 10 8 23 5 30 -2 7 -5 3 -6 -8 -1 -20 -2
-20 -9 0 -7 17 -9 16 -15 -10z"/>
</g>
</svg>
